<?xml version="1.0" encoding="UTF-8" standalone="no"?>
<svg
   xmlns:dc="http://purl.org/dc/elements/1.1/"
   xmlns:cc="http://creativecommons.org/ns#"
   xmlns:rdf="http://www.w3.org/1999/02/22-rdf-syntax-ns#"
   xmlns:svg="http://www.w3.org/2000/svg"
   xmlns="http://www.w3.org/2000/svg"
   width="100mm"
   height="100mm"
   viewBox="0 0 100 100"
   version="1.1"
   id="svg8">
  <defs
     id="defs2" />
  <metadata
     id="metadata5">
    <rdf:RDF>
      <cc:Work
         rdf:about="">
        <dc:format>image/svg+xml</dc:format>
        <dc:type
           rdf:resource="http://purl.org/dc/dcmitype/StillImage" />
        <dc:title></dc:title>
      </cc:Work>
    </rdf:RDF>
  </metadata>
  <path
     d="m 74.415659,92.321351 c -4.943641,0.08102 -9.841762,-1.089484 -14.790343,-0.658213 -3.565886,-0.471723 -7.22558,0.729371 -9.905688,3.089052 -1.962324,1.335386 -5.447033,1.324308 -6.094083,1.821715 -3.85956,0.399841 -7.750871,0.28678 -11.573283,0.679078 -2.618647,-0.623551 -6.036085,-0.489443 -8.075905,-1.732656 1.155957,-3.724279 4.94719,-5.230686 7.705191,-7.514488 2.969895,-1.745463 3.119779,-6.066341 3.390628,-9.173885 0.977271,-3.506623 0.968227,-6.763139 0.834314,-10.383359 0.215923,-3.830242 -0.1664,-7.549928 0.655209,-11.170453 0.846053,-3.59887 2.294525,-6.963584 3.511139,-10.460921 0.866289,-3.295106 0.609567,-7.081046 1.683639,-10.061072 1.42479,-3.266581 3.711094,-6.049776 5.124971,-9.287309 1.837583,-3.091687 3.916701,-6.009869 3.773832,-9.893974 0.571828,-4.55039 1.017447,-9.2261117 1.445585,-13.7209267 3.030585,-2.95287215 6.303553,0.1796971 8.022745,2.5391129 3.780486,-0.6640017 2.841131,5.3726878 4.064949,7.7612308 0.861812,3.528943 1.440482,7.099871 1.327164,10.73674 -0.02487,3.466809 0.535472,6.773821 1.338634,10.143058 1.921669,3.216066 -0.39964,6.716109 0.466581,10.116214 -0.08226,4.045679 1.089512,8.062286 2.357768,11.873417 3.207109,1.44481 4.605866,4.867853 4.700711,8.604547 -0.214383,4.020444 0.705194,8.095625 -0.21518,12.020218 -0.141146,3.376494 0.09043,6.94965 1.137373,9.996727 1.650808,1.264756 0.198735,3.557255 -0.885951,4.676147 z"
     style="fill:none;stroke:#000000;stroke-width:0.784501px;stroke-linecap:butt;stroke-linejoin:miter;stroke-opacity:1"
     id="path849" />
</svg>
