<?xml version="1.0" encoding="UTF-8" standalone="no"?>
<svg
   xmlns:dc="http://purl.org/dc/elements/1.1/"
   xmlns:cc="http://creativecommons.org/ns#"
   xmlns:rdf="http://www.w3.org/1999/02/22-rdf-syntax-ns#"
   xmlns:svg="http://www.w3.org/2000/svg"
   xmlns="http://www.w3.org/2000/svg"
   width="100mm"
   height="100mm"
   viewBox="0 0 100 100"
   version="1.1"
   id="svg8">
  <defs
     id="defs2" />
  <metadata
     id="metadata5">
    <rdf:RDF>
      <cc:Work
         rdf:about="">
        <dc:format>image/svg+xml</dc:format>
        <dc:type
           rdf:resource="http://purl.org/dc/dcmitype/StillImage" />
        <dc:title></dc:title>
      </cc:Work>
    </rdf:RDF>
  </metadata>
  <path
     d="M 50.000001,0.87620926 C 53.837858,11.917235 57.675715,22.958261 61.513572,33.999287 c 11.686603,0.238155 23.373206,0.47631 35.059809,0.714465 -9.314677,7.061883 -18.629353,14.123767 -27.94403,21.18565 3.38486,11.188214 6.76972,22.376428 10.15458,33.564642 C 69.189287,82.787502 59.594644,76.11096 50,69.434418 40.405356,76.110959 30.810711,82.787501 21.216067,89.464042 24.600928,78.275829 27.985788,67.087615 31.370649,55.899402 22.055973,48.837518 12.741296,41.775633 3.4266201,34.713749 15.113223,34.475595 26.799825,34.237441 38.486428,33.999287 42.324286,22.958261 46.162143,11.917235 50.000001,0.87620926 Z"
     style="fill:none;stroke:#000000;stroke-width:0.777503;stroke-linejoin:round;stroke-opacity:1"
     id="path1490" />
  <path
     d="M 99.307838,50.000002 C 99.676865,71.680786 83.863735,92.30908 62.849037,97.645153 43.43672,103.02916 21.169043,95.169716 9.7285742,78.512925 -1.6384271,62.63998 -2.3896164,39.964144 8.336037,23.568937 18.693791,7.0444626 39.349174,-2.2666802 58.573467,1.4133904 77.242915,4.6178118 93.377617,19.344785 97.783979,37.839728 c 1.009833,3.969178 1.527479,8.064294 1.523859,12.160274 z"
     style="fill:none;stroke:#000000;stroke-width:0.501692;stroke-linejoin:round;stroke-opacity:1"
     id="path1496" />
</svg>
